<?xml version="1.0" standalone="no"?>
<!DOCTYPE svg PUBLIC "-//W3C//DTD SVG 1.1//EN" "http://www.w3.org/Graphics/SVG/1.1/DTD/svg11.dtd" >
<svg xmlns="http://www.w3.org/2000/svg" xmlns:xlink="http://www.w3.org/1999/xlink" version="1.1">
<metadata></metadata>
<defs>
<font id="lcd_phoneregular" horiz-adv-x="885" >
<font-face units-per-em="2048" ascent="1638" descent="-410" />
<missing-glyph horiz-adv-x="665" />
<glyph horiz-adv-x="0" />
<glyph horiz-adv-x="0" />
<glyph unicode="&#xd;" horiz-adv-x="665" />
<glyph unicode=" "  horiz-adv-x="665" />
<glyph unicode="&#x09;" horiz-adv-x="665" />
<glyph unicode="&#xa0;" horiz-adv-x="665" />
<glyph unicode="0" d="M66 156v131h132v-131h-132zM66 311v132h132v-132h-132zM66 466v133h132v-133h-132zM66 621v132h132v-132h-132zM66 777v132h132v-132h-132zM222 0v132h132v-132h-132zM222 311v132h132v-132h-132zM222 933v132h132v-132h-132zM378 0v132h132v-132h-132zM378 466v133h132 v-133h-132zM378 933v132h132v-132h-132zM532 0v132h134v-132h-134zM532 621v132h134v-132h-134zM532 933v132h134v-132h-134zM688 156v131h132v-131h-132zM688 311v132h132v-132h-132zM688 466v133h132v-133h-132zM688 621v132h132v-132h-132zM688 777v132h132v-132h-132z " />
<glyph unicode="1" horiz-adv-x="575" d="M66 0v132h132v-132h-132zM66 777v132h132v-132h-132zM222 0v132h132v-132h-132zM222 156v131h132v-131h-132zM222 311v132h132v-132h-132zM222 466v133h132v-133h-132zM222 621v132h132v-132h-132zM222 777v132h132v-132h-132zM222 933v132h132v-132h-132zM378 0v132h132 v-132h-132z" />
<glyph unicode="2" d="M66 0v132h132v-132h-132zM66 777v132h132v-132h-132zM222 0v132h132v-132h-132zM222 156v131h132v-131h-132zM222 933v132h132v-132h-132zM378 0v132h132v-132h-132zM378 311v132h132v-132h-132zM378 933v132h132v-132h-132zM532 0v132h134v-132h-134zM532 466v133h134 v-133h-134zM532 933v132h134v-132h-134zM688 0v132h132v-132h-132zM688 621v132h132v-132h-132zM688 777v132h132v-132h-132z" />
<glyph unicode="3" d="M66 156v131h132v-131h-132zM66 933v132h132v-132h-132zM222 0v132h132v-132h-132zM222 933v132h132v-132h-132zM378 0v132h132v-132h-132zM378 621v132h132v-132h-132zM378 933v132h132v-132h-132zM532 0v132h134v-132h-134zM532 466v133h134v-133h-134zM532 777v132h134 v-132h-134zM532 933v132h134v-132h-134zM688 156v131h132v-131h-132zM688 311v132h132v-132h-132zM688 933v132h132v-132h-132z" />
<glyph unicode="4" d="M66 311v132h132v-132h-132zM66 466v133h132v-133h-132zM222 311v132h132v-132h-132zM222 621v132h132v-132h-132zM378 311v132h132v-132h-132zM378 777v132h132v-132h-132zM532 0v132h132v-132h-132zM532 156v131h132v-131h-132zM532 311v132h132v-132h-132zM532 466v133 h132v-133h-132zM532 621v132h132v-132h-132zM532 777v132h132v-132h-132zM532 933v132h132v-132h-132zM688 311v132h132v-132h-132z" />
<glyph unicode="5" d="M66 156v131h132v-131h-132zM66 621v132h132v-132h-132zM66 777v132h132v-132h-132zM66 933v132h132v-132h-132zM222 0v132h132v-132h-132zM222 621v132h132v-132h-132zM222 933v132h132v-132h-132zM378 0v132h132v-132h-132zM378 621v132h132v-132h-132zM378 933v132h132 v-132h-132zM532 0v132h132v-132h-132zM532 621v132h132v-132h-132zM532 933v132h132v-132h-132zM688 156v131h132v-131h-132zM688 311v132h132v-132h-132zM688 466v133h132v-133h-132zM688 933v132h132v-132h-132z" />
<glyph unicode="6" d="M66 156v131h132v-131h-132zM66 311v132h132v-132h-132zM66 466v133h132v-133h-132zM66 621v132h132v-132h-132zM222 0v132h132v-132h-132zM222 466v133h132v-133h-132zM222 777v132h132v-132h-132zM378 0v132h132v-132h-132zM378 466v133h132v-133h-132zM378 933v132h132 v-132h-132zM532 0v132h134v-132h-134zM532 466v133h134v-133h-134zM532 933v132h134v-132h-134zM688 156v131h132v-131h-132zM688 311v132h132v-132h-132z" />
<glyph unicode="7" d="M66 933v132h132v-132h-132zM222 0v132h132v-132h-132zM222 156v131h132v-131h-132zM222 311v132h132v-132h-132zM222 933v132h132v-132h-132zM378 466v133h132v-133h-132zM378 933v132h132v-132h-132zM532 621v132h132v-132h-132zM532 933v132h132v-132h-132zM688 777 v132h132v-132h-132zM688 933v132h132v-132h-132z" />
<glyph unicode="8" d="M66 156v131h132v-131h-132zM66 311v132h132v-132h-132zM66 621v132h132v-132h-132zM66 777v132h132v-132h-132zM222 0v132h132v-132h-132zM222 466v133h132v-133h-132zM222 933v132h132v-132h-132zM378 0v132h132v-132h-132zM378 466v133h132v-133h-132zM378 933v132h132 v-132h-132zM532 0v132h134v-132h-134zM532 466v133h134v-133h-134zM532 933v132h134v-132h-134zM688 156v131h132v-131h-132zM688 311v132h132v-132h-132zM688 621v132h132v-132h-132zM688 777v132h132v-132h-132z" />
<glyph unicode="9" d="M66 621v132h132v-132h-132zM66 777v132h132v-132h-132zM222 0v132h132v-132h-132zM222 466v133h132v-133h-132zM222 933v132h132v-132h-132zM378 0v132h132v-132h-132zM378 466v133h132v-133h-132zM378 933v132h132v-132h-132zM532 156v131h134v-131h-134zM532 466v133 h134v-133h-134zM532 933v132h134v-132h-134zM688 311v132h132v-132h-132zM688 466v133h132v-133h-132zM688 621v132h132v-132h-132zM688 777v132h132v-132h-132z" />
<glyph unicode="A" d="M66 0v132h132v-132h-132zM66 156v131h132v-131h-132zM66 311v132h132v-132h-132zM66 466v133h132v-133h-132zM66 621v132h132v-132h-132zM66 777v132h132v-132h-132zM222 311v132h132v-132h-132zM222 933v132h132v-132h-132zM378 311v132h132v-132h-132zM378 933v132h132 v-132h-132zM532 311v132h134v-132h-134zM532 933v132h134v-132h-134zM688 0v132h132v-132h-132zM688 156v131h132v-131h-132zM688 311v132h132v-132h-132zM688 466v133h132v-133h-132zM688 621v132h132v-132h-132zM688 777v132h132v-132h-132z" />
<glyph unicode="B" d="M66 0v132h132v-132h-132zM66 156v131h132v-131h-132zM66 311v132h132v-132h-132zM66 466v133h132v-133h-132zM66 621v132h132v-132h-132zM66 777v132h132v-132h-132zM66 933v132h132v-132h-132zM222 0v132h132v-132h-132zM222 466v133h132v-133h-132zM222 933v132h132 v-132h-132zM378 0v132h132v-132h-132zM378 466v133h132v-133h-132zM378 933v132h132v-132h-132zM532 0v132h134v-132h-134zM532 466v133h134v-133h-134zM532 933v132h134v-132h-134zM688 156v131h132v-131h-132zM688 311v132h132v-132h-132zM688 621v132h132v-132h-132z M688 777v132h132v-132h-132z" />
<glyph unicode="C" d="M66 156v131h132v-131h-132zM66 311v132h132v-132h-132zM66 466v133h132v-133h-132zM66 621v132h132v-132h-132zM66 777v132h132v-132h-132zM222 0v132h132v-132h-132zM222 933v132h132v-132h-132zM378 0v132h132v-132h-132zM378 933v132h132v-132h-132zM532 0v132h134 v-132h-134zM532 933v132h134v-132h-134zM688 156v131h132v-131h-132zM688 777v132h132v-132h-132z" />
<glyph unicode="D" d="M66 0v132h132v-132h-132zM66 156v131h132v-131h-132zM66 311v132h132v-132h-132zM66 466v133h132v-133h-132zM66 621v132h132v-132h-132zM66 777v132h132v-132h-132zM66 933v132h132v-132h-132zM222 0v132h132v-132h-132zM222 933v132h132v-132h-132zM378 0v132h132v-132 h-132zM378 933v132h132v-132h-132zM532 0v132h134v-132h-134zM532 933v132h134v-132h-134zM688 156v131h132v-131h-132zM688 311v132h132v-132h-132zM688 466v133h132v-133h-132zM688 621v132h132v-132h-132zM688 777v132h132v-132h-132z" />
<glyph unicode="E" d="M66 0v132h132v-132h-132zM66 156v131h132v-131h-132zM66 311v132h132v-132h-132zM66 466v133h132v-133h-132zM66 621v132h132v-132h-132zM66 777v132h132v-132h-132zM66 933v132h132v-132h-132zM222 0v132h132v-132h-132zM222 466v133h132v-133h-132zM222 933v132h132 v-132h-132zM378 0v132h132v-132h-132zM378 466v133h132v-133h-132zM378 933v132h132v-132h-132zM532 0v132h134v-132h-134zM532 466v133h134v-133h-134zM532 933v132h134v-132h-134zM688 0v132h132v-132h-132zM688 933v132h132v-132h-132z" />
<glyph unicode="F" d="M66 0v132h132v-132h-132zM66 156v131h132v-131h-132zM66 311v132h132v-132h-132zM66 466v133h132v-133h-132zM66 621v132h132v-132h-132zM66 777v132h132v-132h-132zM66 933v132h132v-132h-132zM222 466v133h132v-133h-132zM222 933v132h132v-132h-132zM378 466v133h132 v-133h-132zM378 933v132h132v-132h-132zM532 466v133h134v-133h-134zM532 933v132h134v-132h-134zM688 933v132h132v-132h-132z" />
<glyph unicode="G" d="M66 156v131h132v-131h-132zM66 311v132h132v-132h-132zM66 466v133h132v-133h-132zM66 621v132h132v-132h-132zM66 777v132h132v-132h-132zM222 0v132h132v-132h-132zM222 933v132h132v-132h-132zM378 0v132h132v-132h-132zM378 466v133h132v-133h-132zM378 933v132h132 v-132h-132zM532 0v132h134v-132h-134zM532 466v133h134v-133h-134zM532 933v132h134v-132h-134zM688 0v132h132v-132h-132zM688 156v131h132v-131h-132zM688 311v132h132v-132h-132zM688 466v133h132v-133h-132zM688 777v132h132v-132h-132z" />
<glyph unicode="H" d="M66 0v132h132v-132h-132zM66 156v131h132v-131h-132zM66 311v132h132v-132h-132zM66 466v133h132v-133h-132zM66 621v132h132v-132h-132zM66 777v132h132v-132h-132zM66 933v132h132v-132h-132zM222 466v133h132v-133h-132zM378 466v133h132v-133h-132zM532 466v133h134 v-133h-134zM688 0v132h132v-132h-132zM688 156v131h132v-131h-132zM688 311v132h132v-132h-132zM688 466v133h132v-133h-132zM688 621v132h132v-132h-132zM688 777v132h132v-132h-132zM688 933v132h132v-132h-132z" />
<glyph unicode="I" horiz-adv-x="575" d="M66 0v132h132v-132h-132zM66 933v132h132v-132h-132zM222 0v132h132v-132h-132zM222 156v131h132v-131h-132zM222 311v132h132v-132h-132zM222 466v133h132v-133h-132zM222 621v132h132v-132h-132zM222 777v132h132v-132h-132zM222 933v132h132v-132h-132zM377 0v132h133 v-132h-133zM377 933v132h133v-132h-133z" />
<glyph unicode="J" d="M66 156v131h132v-131h-132zM222 0v132h132v-132h-132zM378 0v132h132v-132h-132zM378 933v132h132v-132h-132zM532 156v131h134v-131h-134zM532 311v132h134v-132h-134zM532 466v133h134v-133h-134zM532 621v132h134v-132h-134zM532 777v132h134v-132h-134zM532 933v132 h134v-132h-134zM688 933v132h132v-132h-132z" />
<glyph unicode="K" horiz-adv-x="819" d="M33 0v132h132v-132h-132zM33 156v131h132v-131h-132zM33 311v132h132v-132h-132zM33 466v133h132v-133h-132zM33 621v132h132v-132h-132zM33 777v132h132v-132h-132zM33 933v132h132v-132h-132zM189 466v133h132v-133h-132zM344 311v132h132v-132h-132zM344 621v132h132 v-132h-132zM499 156v131h133v-131h-133zM499 777v132h133v-132h-133zM655 0v132h131v-132h-131zM655 933v132h131v-132h-131z" />
<glyph unicode="L" d="M66 0v132h132v-132h-132zM66 156v131h132v-131h-132zM66 311v132h132v-132h-132zM66 466v133h132v-133h-132zM66 621v132h132v-132h-132zM66 777v132h132v-132h-132zM66 933v132h132v-132h-132zM222 0v132h132v-132h-132zM378 0v132h132v-132h-132zM532 0v132h134v-132 h-134zM688 0v132h132v-132h-132z" />
<glyph unicode="M" horiz-adv-x="887" d="M66 0v132h132v-132h-132zM66 156v131h132v-131h-132zM66 311v132h132v-132h-132zM66 466v133h132v-133h-132zM66 621v132h132v-132h-132zM66 777v132h132v-132h-132zM66 933v132h132v-132h-132zM222 777v132h132v-132h-132zM378 466v133h132v-133h-132zM378 621v132h132 v-132h-132zM532 777v132h134v-132h-134zM688 0v132h134v-132h-134zM688 156v131h134v-131h-134zM688 311v132h134v-132h-134zM688 466v133h134v-133h-134zM688 621v132h134v-132h-134zM688 777v132h134v-132h-134zM688 933v132h134v-132h-134z" />
<glyph unicode="N" horiz-adv-x="887" d="M66 0v132h132v-132h-132zM66 156v131h132v-131h-132zM66 311v132h132v-132h-132zM66 466v133h132v-133h-132zM66 621v132h132v-132h-132zM66 777v132h132v-132h-132zM66 933v132h132v-132h-132zM222 621v132h132v-132h-132zM378 466v133h132v-133h-132zM532 311v132h134 v-132h-134zM688 0v132h134v-132h-134zM688 156v131h134v-131h-134zM688 311v132h134v-132h-134zM688 466v133h134v-133h-134zM688 621v132h134v-132h-134zM688 777v132h134v-132h-134zM688 933v132h134v-132h-134z" />
<glyph unicode="O" d="M66 156v131h132v-131h-132zM66 311v132h132v-132h-132zM66 466v133h132v-133h-132zM66 621v132h132v-132h-132zM66 777v132h132v-132h-132zM222 0v132h132v-132h-132zM222 933v132h132v-132h-132zM378 0v132h132v-132h-132zM378 933v132h132v-132h-132zM532 0v132h134 v-132h-134zM532 933v132h134v-132h-134zM688 156v131h132v-131h-132zM688 311v132h132v-132h-132zM688 466v133h132v-133h-132zM688 621v132h132v-132h-132zM688 777v132h132v-132h-132z" />
<glyph unicode="P" horiz-adv-x="887" d="M66 0v132h132v-132h-132zM66 156v131h132v-131h-132zM66 311v132h132v-132h-132zM66 466v133h132v-133h-132zM66 621v132h132v-132h-132zM66 777v132h132v-132h-132zM66 933v132h132v-132h-132zM222 466v133h132v-133h-132zM222 933v132h132v-132h-132zM378 466v133h132 v-133h-132zM378 933v132h132v-132h-132zM532 466v133h134v-133h-134zM532 933v132h134v-132h-134zM688 621v132h134v-132h-134zM688 777v132h134v-132h-134z" />
<glyph unicode="Q" d="M66 156v131h132v-131h-132zM66 311v132h132v-132h-132zM66 466v133h132v-133h-132zM66 621v132h132v-132h-132zM66 777v132h132v-132h-132zM222 0v132h132v-132h-132zM222 933v132h132v-132h-132zM378 0v132h132v-132h-132zM378 311v132h132v-132h-132zM378 933v132h132 v-132h-132zM532 156v131h134v-131h-134zM532 933v132h134v-132h-134zM688 0v132h132v-132h-132zM688 311v132h132v-132h-132zM688 466v133h132v-133h-132zM688 621v132h132v-132h-132zM688 777v132h132v-132h-132z" />
<glyph unicode="R" d="M66 0v132h132v-132h-132zM66 156v131h132v-131h-132zM66 311v132h132v-132h-132zM66 466v133h132v-133h-132zM66 621v132h132v-132h-132zM66 777v132h132v-132h-132zM66 933v132h132v-132h-132zM222 466v133h132v-133h-132zM222 933v132h132v-132h-132zM378 311v132h132 v-132h-132zM378 466v133h132v-133h-132zM378 933v132h132v-132h-132zM532 156v131h134v-131h-134zM532 466v133h134v-133h-134zM532 933v132h134v-132h-134zM688 0v132h132v-132h-132zM688 621v132h132v-132h-132zM688 777v132h132v-132h-132z" />
<glyph unicode="S" horiz-adv-x="887" d="M66 0v132h132v-132h-132zM66 621v132h132v-132h-132zM66 777v132h132v-132h-132zM222 0v132h132v-132h-132zM222 466v133h132v-133h-132zM222 933v132h132v-132h-132zM378 0v132h132v-132h-132zM378 466v133h132v-133h-132zM378 933v132h132v-132h-132zM532 0v132h134 v-132h-134zM532 466v133h134v-133h-134zM532 933v132h134v-132h-134zM688 156v131h134v-131h-134zM688 311v132h134v-132h-134zM688 933v132h134v-132h-134z" />
<glyph unicode="T" d="M66 933v132h132v-132h-132zM222 933v132h132v-132h-132zM378 0v132h132v-132h-132zM378 156v131h132v-131h-132zM378 311v132h132v-132h-132zM378 466v133h132v-133h-132zM378 621v132h132v-132h-132zM378 777v132h132v-132h-132zM378 933v132h132v-132h-132zM532 933 v132h134v-132h-134zM688 933v132h132v-132h-132z" />
<glyph unicode="U" d="M66 156v131h132v-131h-132zM66 311v132h132v-132h-132zM66 466v133h132v-133h-132zM66 621v132h132v-132h-132zM66 777v132h132v-132h-132zM66 933v132h132v-132h-132zM222 0v132h132v-132h-132zM378 0v132h132v-132h-132zM532 0v132h134v-132h-134zM688 156v131h132 v-131h-132zM688 311v132h132v-132h-132zM688 466v133h132v-133h-132zM688 621v132h132v-132h-132zM688 777v132h132v-132h-132zM688 933v132h132v-132h-132z" />
<glyph unicode="V" d="M66 311v132h132v-132h-132zM66 466v133h132v-133h-132zM66 621v132h132v-132h-132zM66 777v132h132v-132h-132zM66 933v132h132v-132h-132zM222 156v131h132v-131h-132zM378 0v132h132v-132h-132zM532 156v131h134v-131h-134zM688 311v132h132v-132h-132zM688 466v133 h132v-133h-132zM688 621v132h132v-132h-132zM688 777v132h132v-132h-132zM688 933v132h132v-132h-132z" />
<glyph unicode="W" d="M66 156v131h132v-131h-132zM66 311v132h132v-132h-132zM66 466v133h132v-133h-132zM66 621v132h132v-132h-132zM66 777v132h132v-132h-132zM66 933v132h132v-132h-132zM222 0v132h132v-132h-132zM378 156v131h132v-131h-132zM378 311v132h132v-132h-132zM532 0v132h134 v-132h-134zM688 156v131h132v-131h-132zM688 311v132h132v-132h-132zM688 466v133h132v-133h-132zM688 621v132h132v-132h-132zM688 777v132h132v-132h-132zM688 933v132h132v-132h-132z" />
<glyph unicode="X" d="M66 0v132h132v-132h-132zM66 156v131h132v-131h-132zM66 777v132h132v-132h-132zM66 933v132h132v-132h-132zM222 311v132h132v-132h-132zM222 621v132h132v-132h-132zM378 466v133h132v-133h-132zM532 311v132h134v-132h-134zM532 621v132h134v-132h-134zM688 0v132h132 v-132h-132zM688 156v131h132v-131h-132zM688 777v132h132v-132h-132zM688 933v132h132v-132h-132z" />
<glyph unicode="Y" d="M66 621v132h132v-132h-132zM66 777v132h132v-132h-132zM66 933v132h132v-132h-132zM222 466v133h132v-133h-132zM378 0v132h132v-132h-132zM378 156v131h132v-131h-132zM378 311v132h132v-132h-132zM532 466v133h134v-133h-134zM688 621v132h132v-132h-132zM688 777v132 h132v-132h-132zM688 933v132h132v-132h-132z" />
<glyph unicode="Z" horiz-adv-x="887" d="M66 0v132h132v-132h-132zM66 156v131h132v-131h-132zM66 933v132h132v-132h-132zM222 0v132h132v-132h-132zM222 311v132h132v-132h-132zM222 933v132h132v-132h-132zM378 0v132h132v-132h-132zM378 466v133h132v-133h-132zM378 933v132h132v-132h-132zM532 0v132h134 v-132h-134zM532 621v132h134v-132h-134zM532 933v132h134v-132h-134zM688 0v132h134v-132h-134zM688 777v132h134v-132h-134zM688 933v132h134v-132h-134z" />
<glyph unicode="a" d="M66 0v132h132v-132h-132zM66 156v131h132v-131h-132zM66 311v132h132v-132h-132zM66 466v133h132v-133h-132zM66 621v132h132v-132h-132zM66 777v132h132v-132h-132zM222 311v132h132v-132h-132zM222 933v132h132v-132h-132zM378 311v132h132v-132h-132zM378 933v132h132 v-132h-132zM532 311v132h134v-132h-134zM532 933v132h134v-132h-134zM688 0v132h132v-132h-132zM688 156v131h132v-131h-132zM688 311v132h132v-132h-132zM688 466v133h132v-133h-132zM688 621v132h132v-132h-132zM688 777v132h132v-132h-132z" />
<glyph unicode="b" d="M66 0v132h132v-132h-132zM66 156v131h132v-131h-132zM66 311v132h132v-132h-132zM66 466v133h132v-133h-132zM66 621v132h132v-132h-132zM66 777v132h132v-132h-132zM66 933v132h132v-132h-132zM222 0v132h132v-132h-132zM222 466v133h132v-133h-132zM222 933v132h132 v-132h-132zM378 0v132h132v-132h-132zM378 466v133h132v-133h-132zM378 933v132h132v-132h-132zM532 0v132h134v-132h-134zM532 466v133h134v-133h-134zM532 933v132h134v-132h-134zM688 156v131h132v-131h-132zM688 311v132h132v-132h-132zM688 621v132h132v-132h-132z M688 777v132h132v-132h-132z" />
<glyph unicode="c" d="M66 156v131h132v-131h-132zM66 311v132h132v-132h-132zM66 466v133h132v-133h-132zM66 621v132h132v-132h-132zM66 777v132h132v-132h-132zM222 0v132h132v-132h-132zM222 933v132h132v-132h-132zM378 0v132h132v-132h-132zM378 933v132h132v-132h-132zM532 0v132h134 v-132h-134zM532 933v132h134v-132h-134zM688 156v131h132v-131h-132zM688 777v132h132v-132h-132z" />
<glyph unicode="d" d="M66 0v132h132v-132h-132zM66 156v131h132v-131h-132zM66 311v132h132v-132h-132zM66 466v133h132v-133h-132zM66 621v132h132v-132h-132zM66 777v132h132v-132h-132zM66 933v132h132v-132h-132zM222 0v132h132v-132h-132zM222 933v132h132v-132h-132zM378 0v132h132v-132 h-132zM378 933v132h132v-132h-132zM532 0v132h134v-132h-134zM532 933v132h134v-132h-134zM688 156v131h132v-131h-132zM688 311v132h132v-132h-132zM688 466v133h132v-133h-132zM688 621v132h132v-132h-132zM688 777v132h132v-132h-132z" />
<glyph unicode="e" d="M66 0v132h132v-132h-132zM66 156v131h132v-131h-132zM66 311v132h132v-132h-132zM66 466v133h132v-133h-132zM66 621v132h132v-132h-132zM66 777v132h132v-132h-132zM66 933v132h132v-132h-132zM222 0v132h132v-132h-132zM222 466v133h132v-133h-132zM222 933v132h132 v-132h-132zM378 0v132h132v-132h-132zM378 466v133h132v-133h-132zM378 933v132h132v-132h-132zM532 0v132h134v-132h-134zM532 466v133h134v-133h-134zM532 933v132h134v-132h-134zM688 0v132h132v-132h-132zM688 933v132h132v-132h-132z" />
<glyph unicode="f" d="M66 0v132h132v-132h-132zM66 156v131h132v-131h-132zM66 311v132h132v-132h-132zM66 466v133h132v-133h-132zM66 621v132h132v-132h-132zM66 777v132h132v-132h-132zM66 933v132h132v-132h-132zM222 466v133h132v-133h-132zM222 933v132h132v-132h-132zM378 466v133h132 v-133h-132zM378 933v132h132v-132h-132zM532 466v133h134v-133h-134zM532 933v132h134v-132h-134zM688 933v132h132v-132h-132z" />
<glyph unicode="g" d="M66 156v131h132v-131h-132zM66 311v132h132v-132h-132zM66 466v133h132v-133h-132zM66 621v132h132v-132h-132zM66 777v132h132v-132h-132zM222 0v132h132v-132h-132zM222 933v132h132v-132h-132zM378 0v132h132v-132h-132zM378 466v133h132v-133h-132zM378 933v132h132 v-132h-132zM532 0v132h134v-132h-134zM532 466v133h134v-133h-134zM532 933v132h134v-132h-134zM688 0v132h132v-132h-132zM688 156v131h132v-131h-132zM688 311v132h132v-132h-132zM688 466v133h132v-133h-132zM688 777v132h132v-132h-132z" />
<glyph unicode="h" d="M66 0v132h132v-132h-132zM66 156v131h132v-131h-132zM66 311v132h132v-132h-132zM66 466v133h132v-133h-132zM66 621v132h132v-132h-132zM66 777v132h132v-132h-132zM66 933v132h132v-132h-132zM222 466v133h132v-133h-132zM378 466v133h132v-133h-132zM532 466v133h134 v-133h-134zM688 0v132h132v-132h-132zM688 156v131h132v-131h-132zM688 311v132h132v-132h-132zM688 466v133h132v-133h-132zM688 621v132h132v-132h-132zM688 777v132h132v-132h-132zM688 933v132h132v-132h-132z" />
<glyph unicode="i" horiz-adv-x="575" d="M66 0v132h132v-132h-132zM66 933v132h132v-132h-132zM222 0v132h132v-132h-132zM222 156v131h132v-131h-132zM222 311v132h132v-132h-132zM222 466v133h132v-133h-132zM222 621v132h132v-132h-132zM222 777v132h132v-132h-132zM222 933v132h132v-132h-132zM377 0v132h133 v-132h-133zM377 933v132h133v-132h-133z" />
<glyph unicode="j" d="M66 156v131h132v-131h-132zM222 0v132h132v-132h-132zM378 0v132h132v-132h-132zM378 933v132h132v-132h-132zM532 156v131h134v-131h-134zM532 311v132h134v-132h-134zM532 466v133h134v-133h-134zM532 621v132h134v-132h-134zM532 777v132h134v-132h-134zM532 933v132 h134v-132h-134zM688 933v132h132v-132h-132z" />
<glyph unicode="k" d="M66 0v132h132v-132h-132zM66 156v131h132v-131h-132zM66 311v132h132v-132h-132zM66 466v133h132v-133h-132zM66 621v132h132v-132h-132zM66 777v132h132v-132h-132zM66 933v132h132v-132h-132zM222 466v133h132v-133h-132zM378 311v132h132v-132h-132zM378 621v132h132 v-132h-132zM532 156v131h134v-131h-134zM532 777v132h134v-132h-134zM688 0v132h132v-132h-132zM688 933v132h132v-132h-132z" />
<glyph unicode="l" d="M66 0v132h132v-132h-132zM66 156v131h132v-131h-132zM66 311v132h132v-132h-132zM66 466v133h132v-133h-132zM66 621v132h132v-132h-132zM66 777v132h132v-132h-132zM66 933v132h132v-132h-132zM222 0v132h132v-132h-132zM378 0v132h132v-132h-132zM532 0v132h134v-132 h-134zM688 0v132h132v-132h-132z" />
<glyph unicode="m" horiz-adv-x="887" d="M66 0v132h132v-132h-132zM66 156v131h132v-131h-132zM66 311v132h132v-132h-132zM66 466v133h132v-133h-132zM66 621v132h132v-132h-132zM66 777v132h132v-132h-132zM66 933v132h132v-132h-132zM222 777v132h132v-132h-132zM378 466v133h132v-133h-132zM378 621v132h132 v-132h-132zM532 777v132h134v-132h-134zM688 0v132h134v-132h-134zM688 156v131h134v-131h-134zM688 311v132h134v-132h-134zM688 466v133h134v-133h-134zM688 621v132h134v-132h-134zM688 777v132h134v-132h-134zM688 933v132h134v-132h-134z" />
<glyph unicode="n" horiz-adv-x="887" d="M66 0v132h132v-132h-132zM66 156v131h132v-131h-132zM66 311v132h132v-132h-132zM66 466v133h132v-133h-132zM66 621v132h132v-132h-132zM66 777v132h132v-132h-132zM66 933v132h132v-132h-132zM222 621v132h132v-132h-132zM378 466v133h132v-133h-132zM532 311v132h134 v-132h-134zM688 0v132h134v-132h-134zM688 156v131h134v-131h-134zM688 311v132h134v-132h-134zM688 466v133h134v-133h-134zM688 621v132h134v-132h-134zM688 777v132h134v-132h-134zM688 933v132h134v-132h-134z" />
<glyph unicode="o" d="M66 156v131h132v-131h-132zM66 311v132h132v-132h-132zM66 466v133h132v-133h-132zM66 621v132h132v-132h-132zM66 777v132h132v-132h-132zM222 0v132h132v-132h-132zM222 933v132h132v-132h-132zM378 0v132h132v-132h-132zM378 933v132h132v-132h-132zM532 0v132h134 v-132h-134zM532 933v132h134v-132h-134zM688 156v131h132v-131h-132zM688 311v132h132v-132h-132zM688 466v133h132v-133h-132zM688 621v132h132v-132h-132zM688 777v132h132v-132h-132z" />
<glyph unicode="p" horiz-adv-x="887" d="M66 0v132h132v-132h-132zM66 156v131h132v-131h-132zM66 311v132h132v-132h-132zM66 466v133h132v-133h-132zM66 621v132h132v-132h-132zM66 777v132h132v-132h-132zM66 933v132h132v-132h-132zM222 466v133h132v-133h-132zM222 933v132h132v-132h-132zM378 466v133h132 v-133h-132zM378 933v132h132v-132h-132zM532 466v133h134v-133h-134zM532 933v132h134v-132h-134zM688 621v132h134v-132h-134zM688 777v132h134v-132h-134z" />
<glyph unicode="q" d="M66 156v131h132v-131h-132zM66 311v132h132v-132h-132zM66 466v133h132v-133h-132zM66 621v132h132v-132h-132zM66 777v132h132v-132h-132zM222 0v132h132v-132h-132zM222 933v132h132v-132h-132zM378 0v132h132v-132h-132zM378 311v132h132v-132h-132zM378 933v132h132 v-132h-132zM532 156v131h134v-131h-134zM532 933v132h134v-132h-134zM688 0v132h132v-132h-132zM688 311v132h132v-132h-132zM688 466v133h132v-133h-132zM688 621v132h132v-132h-132zM688 777v132h132v-132h-132z" />
<glyph unicode="r" d="M66 0v132h132v-132h-132zM66 156v131h132v-131h-132zM66 311v132h132v-132h-132zM66 466v133h132v-133h-132zM66 621v132h132v-132h-132zM66 777v132h132v-132h-132zM66 933v132h132v-132h-132zM222 466v133h132v-133h-132zM222 933v132h132v-132h-132zM378 311v132h132 v-132h-132zM378 466v133h132v-133h-132zM378 933v132h132v-132h-132zM532 156v131h134v-131h-134zM532 466v133h134v-133h-134zM532 933v132h134v-132h-134zM688 0v132h132v-132h-132zM688 621v132h132v-132h-132zM688 777v132h132v-132h-132z" />
<glyph unicode="s" horiz-adv-x="887" d="M66 0v132h132v-132h-132zM66 621v132h132v-132h-132zM66 777v132h132v-132h-132zM222 0v132h132v-132h-132zM222 466v133h132v-133h-132zM222 933v132h132v-132h-132zM378 0v132h132v-132h-132zM378 466v133h132v-133h-132zM378 933v132h132v-132h-132zM532 0v132h134 v-132h-134zM532 466v133h134v-133h-134zM532 933v132h134v-132h-134zM688 156v131h134v-131h-134zM688 311v132h134v-132h-134zM688 933v132h134v-132h-134z" />
<glyph unicode="t" d="M66 933v132h132v-132h-132zM222 933v132h132v-132h-132zM378 0v132h132v-132h-132zM378 156v131h132v-131h-132zM378 311v132h132v-132h-132zM378 466v133h132v-133h-132zM378 621v132h132v-132h-132zM378 777v132h132v-132h-132zM378 933v132h132v-132h-132zM532 933 v132h134v-132h-134zM688 933v132h132v-132h-132z" />
<glyph unicode="u" d="M66 156v131h132v-131h-132zM66 311v132h132v-132h-132zM66 466v133h132v-133h-132zM66 621v132h132v-132h-132zM66 777v132h132v-132h-132zM66 933v132h132v-132h-132zM222 0v132h132v-132h-132zM378 0v132h132v-132h-132zM532 0v132h134v-132h-134zM688 156v131h132 v-131h-132zM688 311v132h132v-132h-132zM688 466v133h132v-133h-132zM688 621v132h132v-132h-132zM688 777v132h132v-132h-132zM688 933v132h132v-132h-132z" />
<glyph unicode="v" d="M66 311v132h132v-132h-132zM66 466v133h132v-133h-132zM66 621v132h132v-132h-132zM66 777v132h132v-132h-132zM66 933v132h132v-132h-132zM222 156v131h132v-131h-132zM378 0v132h132v-132h-132zM532 156v131h134v-131h-134zM688 311v132h132v-132h-132zM688 466v133 h132v-133h-132zM688 621v132h132v-132h-132zM688 777v132h132v-132h-132zM688 933v132h132v-132h-132z" />
<glyph unicode="w" d="M66 156v131h132v-131h-132zM66 311v132h132v-132h-132zM66 466v133h132v-133h-132zM66 621v132h132v-132h-132zM66 777v132h132v-132h-132zM66 933v132h132v-132h-132zM222 0v132h132v-132h-132zM378 156v131h132v-131h-132zM378 311v132h132v-132h-132zM532 0v132h134 v-132h-134zM688 156v131h132v-131h-132zM688 311v132h132v-132h-132zM688 466v133h132v-133h-132zM688 621v132h132v-132h-132zM688 777v132h132v-132h-132zM688 933v132h132v-132h-132z" />
<glyph unicode="x" d="M66 0v132h132v-132h-132zM66 156v131h132v-131h-132zM66 777v132h132v-132h-132zM66 933v132h132v-132h-132zM222 311v132h132v-132h-132zM222 621v132h132v-132h-132zM378 466v133h132v-133h-132zM532 311v132h134v-132h-134zM532 621v132h134v-132h-134zM688 0v132h132 v-132h-132zM688 156v131h132v-131h-132zM688 777v132h132v-132h-132zM688 933v132h132v-132h-132z" />
<glyph unicode="y" d="M66 621v132h132v-132h-132zM66 777v132h132v-132h-132zM66 933v132h132v-132h-132zM222 466v133h132v-133h-132zM378 0v132h132v-132h-132zM378 156v131h132v-131h-132zM378 311v132h132v-132h-132zM532 466v133h134v-133h-134zM688 621v132h132v-132h-132zM688 777v132 h132v-132h-132zM688 933v132h132v-132h-132z" />
<glyph unicode="z" horiz-adv-x="887" d="M66 0v132h132v-132h-132zM66 156v131h132v-131h-132zM66 933v132h132v-132h-132zM222 0v132h132v-132h-132zM222 311v132h132v-132h-132zM222 933v132h132v-132h-132zM378 0v132h132v-132h-132zM378 466v133h132v-133h-132zM378 933v132h132v-132h-132zM532 0v132h134 v-132h-134zM532 621v132h134v-132h-134zM532 933v132h134v-132h-134zM688 0v132h134v-132h-134zM688 777v132h134v-132h-134zM688 933v132h134v-132h-134z" />
<glyph unicode="&#xc0;" d="M66 0v132h132v-132h-132zM66 156v131h132v-131h-132zM66 311v132h132v-132h-132zM66 466v133h132v-133h-132zM66 621v132h132v-132h-132zM66 777v132h132v-132h-132zM222 311v132h132v-132h-132zM222 933v132h132v-132h-132zM378 311v132h132v-132h-132zM378 933v132h132 v-132h-132zM532 311v132h134v-132h-134zM532 933v132h134v-132h-134zM688 0v132h132v-132h-132zM688 156v131h132v-131h-132zM688 311v132h132v-132h-132zM688 466v133h132v-133h-132zM688 621v132h132v-132h-132zM688 777v132h132v-132h-132z" />
<glyph unicode="&#xc1;" d="M66 0v132h132v-132h-132zM66 156v131h132v-131h-132zM66 311v132h132v-132h-132zM66 466v133h132v-133h-132zM66 621v132h132v-132h-132zM66 777v132h132v-132h-132zM222 311v132h132v-132h-132zM222 933v132h132v-132h-132zM378 311v132h132v-132h-132zM378 933v132h132 v-132h-132zM532 311v132h134v-132h-134zM532 933v132h134v-132h-134zM688 0v132h132v-132h-132zM688 156v131h132v-131h-132zM688 311v132h132v-132h-132zM688 466v133h132v-133h-132zM688 621v132h132v-132h-132zM688 777v132h132v-132h-132z" />
<glyph unicode="&#xc2;" d="M66 0v132h132v-132h-132zM66 156v131h132v-131h-132zM66 311v132h132v-132h-132zM66 466v133h132v-133h-132zM66 621v132h132v-132h-132zM66 777v132h132v-132h-132zM222 311v132h132v-132h-132zM222 933v132h132v-132h-132zM378 311v132h132v-132h-132zM378 933v132h132 v-132h-132zM532 311v132h134v-132h-134zM532 933v132h134v-132h-134zM688 0v132h132v-132h-132zM688 156v131h132v-131h-132zM688 311v132h132v-132h-132zM688 466v133h132v-133h-132zM688 621v132h132v-132h-132zM688 777v132h132v-132h-132z" />
<glyph unicode="&#xc3;" d="M66 0v132h132v-132h-132zM66 156v131h132v-131h-132zM66 311v132h132v-132h-132zM66 466v133h132v-133h-132zM66 621v132h132v-132h-132zM66 777v132h132v-132h-132zM222 311v132h132v-132h-132zM222 933v132h132v-132h-132zM378 311v132h132v-132h-132zM378 933v132h132 v-132h-132zM532 311v132h134v-132h-134zM532 933v132h134v-132h-134zM688 0v132h132v-132h-132zM688 156v131h132v-131h-132zM688 311v132h132v-132h-132zM688 466v133h132v-133h-132zM688 621v132h132v-132h-132zM688 777v132h132v-132h-132z" />
<glyph unicode="&#xc4;" d="M66 0v132h132v-132h-132zM66 156v131h132v-131h-132zM66 311v132h132v-132h-132zM66 466v133h132v-133h-132zM66 621v132h132v-132h-132zM66 777v132h132v-132h-132zM222 311v132h132v-132h-132zM222 933v132h132v-132h-132zM378 311v132h132v-132h-132zM378 933v132h132 v-132h-132zM532 311v132h134v-132h-134zM532 933v132h134v-132h-134zM688 0v132h132v-132h-132zM688 156v131h132v-131h-132zM688 311v132h132v-132h-132zM688 466v133h132v-133h-132zM688 621v132h132v-132h-132zM688 777v132h132v-132h-132z" />
<glyph unicode="&#xc5;" d="M66 0v132h132v-132h-132zM66 156v131h132v-131h-132zM66 311v132h132v-132h-132zM66 466v133h132v-133h-132zM66 621v132h132v-132h-132zM66 777v132h132v-132h-132zM222 311v132h132v-132h-132zM222 933v132h132v-132h-132zM378 311v132h132v-132h-132zM378 933v132h132 v-132h-132zM532 311v132h134v-132h-134zM532 933v132h134v-132h-134zM688 0v132h132v-132h-132zM688 156v131h132v-131h-132zM688 311v132h132v-132h-132zM688 466v133h132v-133h-132zM688 621v132h132v-132h-132zM688 777v132h132v-132h-132z" />
<glyph unicode="&#xc8;" d="M66 0v132h132v-132h-132zM66 156v131h132v-131h-132zM66 311v132h132v-132h-132zM66 466v133h132v-133h-132zM66 621v132h132v-132h-132zM66 777v132h132v-132h-132zM66 933v132h132v-132h-132zM222 0v132h132v-132h-132zM222 466v133h132v-133h-132zM222 933v132h132 v-132h-132zM378 0v132h132v-132h-132zM378 466v133h132v-133h-132zM378 933v132h132v-132h-132zM532 0v132h134v-132h-134zM532 466v133h134v-133h-134zM532 933v132h134v-132h-134zM688 0v132h132v-132h-132zM688 933v132h132v-132h-132z" />
<glyph unicode="&#xc9;" d="M66 0v132h132v-132h-132zM66 156v131h132v-131h-132zM66 311v132h132v-132h-132zM66 466v133h132v-133h-132zM66 621v132h132v-132h-132zM66 777v132h132v-132h-132zM66 933v132h132v-132h-132zM222 0v132h132v-132h-132zM222 466v133h132v-133h-132zM222 933v132h132 v-132h-132zM378 0v132h132v-132h-132zM378 466v133h132v-133h-132zM378 933v132h132v-132h-132zM532 0v132h134v-132h-134zM532 466v133h134v-133h-134zM532 933v132h134v-132h-134zM688 0v132h132v-132h-132zM688 933v132h132v-132h-132z" />
<glyph unicode="&#xca;" d="M66 0v132h132v-132h-132zM66 156v131h132v-131h-132zM66 311v132h132v-132h-132zM66 466v133h132v-133h-132zM66 621v132h132v-132h-132zM66 777v132h132v-132h-132zM66 933v132h132v-132h-132zM222 0v132h132v-132h-132zM222 466v133h132v-133h-132zM222 933v132h132 v-132h-132zM378 0v132h132v-132h-132zM378 466v133h132v-133h-132zM378 933v132h132v-132h-132zM532 0v132h134v-132h-134zM532 466v133h134v-133h-134zM532 933v132h134v-132h-134zM688 0v132h132v-132h-132zM688 933v132h132v-132h-132z" />
<glyph unicode="&#xcb;" d="M66 0v132h132v-132h-132zM66 156v131h132v-131h-132zM66 311v132h132v-132h-132zM66 466v133h132v-133h-132zM66 621v132h132v-132h-132zM66 777v132h132v-132h-132zM66 933v132h132v-132h-132zM222 0v132h132v-132h-132zM222 466v133h132v-133h-132zM222 933v132h132 v-132h-132zM378 0v132h132v-132h-132zM378 466v133h132v-133h-132zM378 933v132h132v-132h-132zM532 0v132h134v-132h-134zM532 466v133h134v-133h-134zM532 933v132h134v-132h-134zM688 0v132h132v-132h-132zM688 933v132h132v-132h-132z" />
<glyph unicode="&#xcc;" horiz-adv-x="575" d="M66 0v132h132v-132h-132zM66 933v132h132v-132h-132zM222 0v132h132v-132h-132zM222 156v131h132v-131h-132zM222 311v132h132v-132h-132zM222 466v133h132v-133h-132zM222 621v132h132v-132h-132zM222 777v132h132v-132h-132zM222 933v132h132v-132h-132zM377 0v132h133 v-132h-133zM377 933v132h133v-132h-133z" />
<glyph unicode="&#xcd;" horiz-adv-x="575" d="M66 0v132h132v-132h-132zM66 933v132h132v-132h-132zM222 0v132h132v-132h-132zM222 156v131h132v-131h-132zM222 311v132h132v-132h-132zM222 466v133h132v-133h-132zM222 621v132h132v-132h-132zM222 777v132h132v-132h-132zM222 933v132h132v-132h-132zM377 0v132h133 v-132h-133zM377 933v132h133v-132h-133z" />
<glyph unicode="&#xce;" horiz-adv-x="575" d="M66 0v132h132v-132h-132zM66 933v132h132v-132h-132zM222 0v132h132v-132h-132zM222 156v131h132v-131h-132zM222 311v132h132v-132h-132zM222 466v133h132v-133h-132zM222 621v132h132v-132h-132zM222 777v132h132v-132h-132zM222 933v132h132v-132h-132zM377 0v132h133 v-132h-133zM377 933v132h133v-132h-133z" />
<glyph unicode="&#xcf;" horiz-adv-x="575" d="M66 0v132h132v-132h-132zM66 933v132h132v-132h-132zM222 0v132h132v-132h-132zM222 156v131h132v-131h-132zM222 311v132h132v-132h-132zM222 466v133h132v-133h-132zM222 621v132h132v-132h-132zM222 777v132h132v-132h-132zM222 933v132h132v-132h-132zM377 0v132h133 v-132h-133zM377 933v132h133v-132h-133z" />
<glyph unicode="&#xd2;" d="M66 156v131h132v-131h-132zM66 311v132h132v-132h-132zM66 466v133h132v-133h-132zM66 621v132h132v-132h-132zM66 777v132h132v-132h-132zM222 0v132h132v-132h-132zM222 933v132h132v-132h-132zM378 0v132h132v-132h-132zM378 933v132h132v-132h-132zM532 0v132h134 v-132h-134zM532 933v132h134v-132h-134zM688 156v131h132v-131h-132zM688 311v132h132v-132h-132zM688 466v133h132v-133h-132zM688 621v132h132v-132h-132zM688 777v132h132v-132h-132z" />
<glyph unicode="&#xd3;" d="M66 156v131h132v-131h-132zM66 311v132h132v-132h-132zM66 466v133h132v-133h-132zM66 621v132h132v-132h-132zM66 777v132h132v-132h-132zM222 0v132h132v-132h-132zM222 933v132h132v-132h-132zM378 0v132h132v-132h-132zM378 933v132h132v-132h-132zM532 0v132h134 v-132h-134zM532 933v132h134v-132h-134zM688 156v131h132v-131h-132zM688 311v132h132v-132h-132zM688 466v133h132v-133h-132zM688 621v132h132v-132h-132zM688 777v132h132v-132h-132z" />
<glyph unicode="&#xd4;" d="M66 156v131h132v-131h-132zM66 311v132h132v-132h-132zM66 466v133h132v-133h-132zM66 621v132h132v-132h-132zM66 777v132h132v-132h-132zM222 0v132h132v-132h-132zM222 933v132h132v-132h-132zM378 0v132h132v-132h-132zM378 933v132h132v-132h-132zM532 0v132h134 v-132h-134zM532 933v132h134v-132h-134zM688 156v131h132v-131h-132zM688 311v132h132v-132h-132zM688 466v133h132v-133h-132zM688 621v132h132v-132h-132zM688 777v132h132v-132h-132z" />
<glyph unicode="&#xd5;" d="M66 156v131h132v-131h-132zM66 311v132h132v-132h-132zM66 466v133h132v-133h-132zM66 621v132h132v-132h-132zM66 777v132h132v-132h-132zM222 0v132h132v-132h-132zM222 933v132h132v-132h-132zM378 0v132h132v-132h-132zM378 933v132h132v-132h-132zM532 0v132h134 v-132h-134zM532 933v132h134v-132h-134zM688 156v131h132v-131h-132zM688 311v132h132v-132h-132zM688 466v133h132v-133h-132zM688 621v132h132v-132h-132zM688 777v132h132v-132h-132z" />
<glyph unicode="&#xd6;" d="M66 156v131h132v-131h-132zM66 311v132h132v-132h-132zM66 466v133h132v-133h-132zM66 621v132h132v-132h-132zM66 777v132h132v-132h-132zM222 0v132h132v-132h-132zM222 933v132h132v-132h-132zM378 0v132h132v-132h-132zM378 933v132h132v-132h-132zM532 0v132h134 v-132h-134zM532 933v132h134v-132h-134zM688 156v131h132v-131h-132zM688 311v132h132v-132h-132zM688 466v133h132v-133h-132zM688 621v132h132v-132h-132zM688 777v132h132v-132h-132z" />
<glyph unicode="&#xd9;" d="M66 156v131h132v-131h-132zM66 311v132h132v-132h-132zM66 466v133h132v-133h-132zM66 621v132h132v-132h-132zM66 777v132h132v-132h-132zM66 933v132h132v-132h-132zM222 0v132h132v-132h-132zM378 0v132h132v-132h-132zM532 0v132h134v-132h-134zM688 156v131h132 v-131h-132zM688 311v132h132v-132h-132zM688 466v133h132v-133h-132zM688 621v132h132v-132h-132zM688 777v132h132v-132h-132zM688 933v132h132v-132h-132z" />
<glyph unicode="&#xda;" d="M66 156v131h132v-131h-132zM66 311v132h132v-132h-132zM66 466v133h132v-133h-132zM66 621v132h132v-132h-132zM66 777v132h132v-132h-132zM66 933v132h132v-132h-132zM222 0v132h132v-132h-132zM378 0v132h132v-132h-132zM532 0v132h134v-132h-134zM688 156v131h132 v-131h-132zM688 311v132h132v-132h-132zM688 466v133h132v-133h-132zM688 621v132h132v-132h-132zM688 777v132h132v-132h-132zM688 933v132h132v-132h-132z" />
<glyph unicode="&#xdb;" d="M66 156v131h132v-131h-132zM66 311v132h132v-132h-132zM66 466v133h132v-133h-132zM66 621v132h132v-132h-132zM66 777v132h132v-132h-132zM66 933v132h132v-132h-132zM222 0v132h132v-132h-132zM378 0v132h132v-132h-132zM532 0v132h134v-132h-134zM688 156v131h132 v-131h-132zM688 311v132h132v-132h-132zM688 466v133h132v-133h-132zM688 621v132h132v-132h-132zM688 777v132h132v-132h-132zM688 933v132h132v-132h-132z" />
<glyph unicode="&#xdc;" d="M66 156v131h132v-131h-132zM66 311v132h132v-132h-132zM66 466v133h132v-133h-132zM66 621v132h132v-132h-132zM66 777v132h132v-132h-132zM66 933v132h132v-132h-132zM222 0v132h132v-132h-132zM378 0v132h132v-132h-132zM532 0v132h134v-132h-134zM688 156v131h132 v-131h-132zM688 311v132h132v-132h-132zM688 466v133h132v-133h-132zM688 621v132h132v-132h-132zM688 777v132h132v-132h-132zM688 933v132h132v-132h-132z" />
<glyph unicode="&#xe0;" d="M66 0v132h132v-132h-132zM66 156v131h132v-131h-132zM66 311v132h132v-132h-132zM66 466v133h132v-133h-132zM66 621v132h132v-132h-132zM66 777v132h132v-132h-132zM222 311v132h132v-132h-132zM222 933v132h132v-132h-132zM378 311v132h132v-132h-132zM378 933v132h132 v-132h-132zM532 311v132h134v-132h-134zM532 933v132h134v-132h-134zM688 0v132h132v-132h-132zM688 156v131h132v-131h-132zM688 311v132h132v-132h-132zM688 466v133h132v-133h-132zM688 621v132h132v-132h-132zM688 777v132h132v-132h-132z" />
<glyph unicode="&#xe1;" d="M66 0v132h132v-132h-132zM66 156v131h132v-131h-132zM66 311v132h132v-132h-132zM66 466v133h132v-133h-132zM66 621v132h132v-132h-132zM66 777v132h132v-132h-132zM222 311v132h132v-132h-132zM222 933v132h132v-132h-132zM378 311v132h132v-132h-132zM378 933v132h132 v-132h-132zM532 311v132h134v-132h-134zM532 933v132h134v-132h-134zM688 0v132h132v-132h-132zM688 156v131h132v-131h-132zM688 311v132h132v-132h-132zM688 466v133h132v-133h-132zM688 621v132h132v-132h-132zM688 777v132h132v-132h-132z" />
<glyph unicode="&#xe2;" d="M66 0v132h132v-132h-132zM66 156v131h132v-131h-132zM66 311v132h132v-132h-132zM66 466v133h132v-133h-132zM66 621v132h132v-132h-132zM66 777v132h132v-132h-132zM222 311v132h132v-132h-132zM222 933v132h132v-132h-132zM378 311v132h132v-132h-132zM378 933v132h132 v-132h-132zM532 311v132h134v-132h-134zM532 933v132h134v-132h-134zM688 0v132h132v-132h-132zM688 156v131h132v-131h-132zM688 311v132h132v-132h-132zM688 466v133h132v-133h-132zM688 621v132h132v-132h-132zM688 777v132h132v-132h-132z" />
<glyph unicode="&#xe3;" d="M66 0v132h132v-132h-132zM66 156v131h132v-131h-132zM66 311v132h132v-132h-132zM66 466v133h132v-133h-132zM66 621v132h132v-132h-132zM66 777v132h132v-132h-132zM222 311v132h132v-132h-132zM222 933v132h132v-132h-132zM378 311v132h132v-132h-132zM378 933v132h132 v-132h-132zM532 311v132h134v-132h-134zM532 933v132h134v-132h-134zM688 0v132h132v-132h-132zM688 156v131h132v-131h-132zM688 311v132h132v-132h-132zM688 466v133h132v-133h-132zM688 621v132h132v-132h-132zM688 777v132h132v-132h-132z" />
<glyph unicode="&#xe4;" d="M66 0v132h132v-132h-132zM66 156v131h132v-131h-132zM66 311v132h132v-132h-132zM66 466v133h132v-133h-132zM66 621v132h132v-132h-132zM66 777v132h132v-132h-132zM222 311v132h132v-132h-132zM222 933v132h132v-132h-132zM378 311v132h132v-132h-132zM378 933v132h132 v-132h-132zM532 311v132h134v-132h-134zM532 933v132h134v-132h-134zM688 0v132h132v-132h-132zM688 156v131h132v-131h-132zM688 311v132h132v-132h-132zM688 466v133h132v-133h-132zM688 621v132h132v-132h-132zM688 777v132h132v-132h-132z" />
<glyph unicode="&#xe5;" d="M66 0v132h132v-132h-132zM66 156v131h132v-131h-132zM66 311v132h132v-132h-132zM66 466v133h132v-133h-132zM66 621v132h132v-132h-132zM66 777v132h132v-132h-132zM222 311v132h132v-132h-132zM222 933v132h132v-132h-132zM378 311v132h132v-132h-132zM378 933v132h132 v-132h-132zM532 311v132h134v-132h-134zM532 933v132h134v-132h-134zM688 0v132h132v-132h-132zM688 156v131h132v-131h-132zM688 311v132h132v-132h-132zM688 466v133h132v-133h-132zM688 621v132h132v-132h-132zM688 777v132h132v-132h-132z" />
<glyph unicode="&#xe8;" d="M66 0v132h132v-132h-132zM66 156v131h132v-131h-132zM66 311v132h132v-132h-132zM66 466v133h132v-133h-132zM66 621v132h132v-132h-132zM66 777v132h132v-132h-132zM66 933v132h132v-132h-132zM222 0v132h132v-132h-132zM222 466v133h132v-133h-132zM222 933v132h132 v-132h-132zM378 0v132h132v-132h-132zM378 466v133h132v-133h-132zM378 933v132h132v-132h-132zM532 0v132h134v-132h-134zM532 466v133h134v-133h-134zM532 933v132h134v-132h-134zM688 0v132h132v-132h-132zM688 933v132h132v-132h-132z" />
<glyph unicode="&#xe9;" d="M66 0v132h132v-132h-132zM66 156v131h132v-131h-132zM66 311v132h132v-132h-132zM66 466v133h132v-133h-132zM66 621v132h132v-132h-132zM66 777v132h132v-132h-132zM66 933v132h132v-132h-132zM222 0v132h132v-132h-132zM222 466v133h132v-133h-132zM222 933v132h132 v-132h-132zM378 0v132h132v-132h-132zM378 466v133h132v-133h-132zM378 933v132h132v-132h-132zM532 0v132h134v-132h-134zM532 466v133h134v-133h-134zM532 933v132h134v-132h-134zM688 0v132h132v-132h-132zM688 933v132h132v-132h-132z" />
<glyph unicode="&#xea;" d="M66 0v132h132v-132h-132zM66 156v131h132v-131h-132zM66 311v132h132v-132h-132zM66 466v133h132v-133h-132zM66 621v132h132v-132h-132zM66 777v132h132v-132h-132zM66 933v132h132v-132h-132zM222 0v132h132v-132h-132zM222 466v133h132v-133h-132zM222 933v132h132 v-132h-132zM378 0v132h132v-132h-132zM378 466v133h132v-133h-132zM378 933v132h132v-132h-132zM532 0v132h134v-132h-134zM532 466v133h134v-133h-134zM532 933v132h134v-132h-134zM688 0v132h132v-132h-132zM688 933v132h132v-132h-132z" />
<glyph unicode="&#xeb;" d="M66 0v132h132v-132h-132zM66 156v131h132v-131h-132zM66 311v132h132v-132h-132zM66 466v133h132v-133h-132zM66 621v132h132v-132h-132zM66 777v132h132v-132h-132zM66 933v132h132v-132h-132zM222 0v132h132v-132h-132zM222 466v133h132v-133h-132zM222 933v132h132 v-132h-132zM378 0v132h132v-132h-132zM378 466v133h132v-133h-132zM378 933v132h132v-132h-132zM532 0v132h134v-132h-134zM532 466v133h134v-133h-134zM532 933v132h134v-132h-134zM688 0v132h132v-132h-132zM688 933v132h132v-132h-132z" />
<glyph unicode="&#xec;" horiz-adv-x="575" d="M66 0v132h132v-132h-132zM66 933v132h132v-132h-132zM222 0v132h132v-132h-132zM222 156v131h132v-131h-132zM222 311v132h132v-132h-132zM222 466v133h132v-133h-132zM222 621v132h132v-132h-132zM222 777v132h132v-132h-132zM222 933v132h132v-132h-132zM377 0v132h133 v-132h-133zM377 933v132h133v-132h-133z" />
<glyph unicode="&#xed;" horiz-adv-x="575" d="M66 0v132h132v-132h-132zM66 933v132h132v-132h-132zM222 0v132h132v-132h-132zM222 156v131h132v-131h-132zM222 311v132h132v-132h-132zM222 466v133h132v-133h-132zM222 621v132h132v-132h-132zM222 777v132h132v-132h-132zM222 933v132h132v-132h-132zM377 0v132h133 v-132h-133zM377 933v132h133v-132h-133z" />
<glyph unicode="&#xee;" horiz-adv-x="575" d="M66 0v132h132v-132h-132zM66 933v132h132v-132h-132zM222 0v132h132v-132h-132zM222 156v131h132v-131h-132zM222 311v132h132v-132h-132zM222 466v133h132v-133h-132zM222 621v132h132v-132h-132zM222 777v132h132v-132h-132zM222 933v132h132v-132h-132zM377 0v132h133 v-132h-133zM377 933v132h133v-132h-133z" />
<glyph unicode="&#xef;" horiz-adv-x="575" d="M66 0v132h132v-132h-132zM66 933v132h132v-132h-132zM222 0v132h132v-132h-132zM222 156v131h132v-131h-132zM222 311v132h132v-132h-132zM222 466v133h132v-133h-132zM222 621v132h132v-132h-132zM222 777v132h132v-132h-132zM222 933v132h132v-132h-132zM377 0v132h133 v-132h-133zM377 933v132h133v-132h-133z" />
<glyph unicode="&#xf2;" d="M66 156v131h132v-131h-132zM66 311v132h132v-132h-132zM66 466v133h132v-133h-132zM66 621v132h132v-132h-132zM66 777v132h132v-132h-132zM222 0v132h132v-132h-132zM222 933v132h132v-132h-132zM378 0v132h132v-132h-132zM378 933v132h132v-132h-132zM532 0v132h134 v-132h-134zM532 933v132h134v-132h-134zM688 156v131h132v-131h-132zM688 311v132h132v-132h-132zM688 466v133h132v-133h-132zM688 621v132h132v-132h-132zM688 777v132h132v-132h-132z" />
<glyph unicode="&#xf3;" d="M66 156v131h132v-131h-132zM66 311v132h132v-132h-132zM66 466v133h132v-133h-132zM66 621v132h132v-132h-132zM66 777v132h132v-132h-132zM222 0v132h132v-132h-132zM222 933v132h132v-132h-132zM378 0v132h132v-132h-132zM378 933v132h132v-132h-132zM532 0v132h134 v-132h-134zM532 933v132h134v-132h-134zM688 156v131h132v-131h-132zM688 311v132h132v-132h-132zM688 466v133h132v-133h-132zM688 621v132h132v-132h-132zM688 777v132h132v-132h-132z" />
<glyph unicode="&#xf4;" d="M66 156v131h132v-131h-132zM66 311v132h132v-132h-132zM66 466v133h132v-133h-132zM66 621v132h132v-132h-132zM66 777v132h132v-132h-132zM222 0v132h132v-132h-132zM222 933v132h132v-132h-132zM378 0v132h132v-132h-132zM378 933v132h132v-132h-132zM532 0v132h134 v-132h-134zM532 933v132h134v-132h-134zM688 156v131h132v-131h-132zM688 311v132h132v-132h-132zM688 466v133h132v-133h-132zM688 621v132h132v-132h-132zM688 777v132h132v-132h-132z" />
<glyph unicode="&#xf5;" d="M66 156v131h132v-131h-132zM66 311v132h132v-132h-132zM66 466v133h132v-133h-132zM66 621v132h132v-132h-132zM66 777v132h132v-132h-132zM222 0v132h132v-132h-132zM222 933v132h132v-132h-132zM378 0v132h132v-132h-132zM378 933v132h132v-132h-132zM532 0v132h134 v-132h-134zM532 933v132h134v-132h-134zM688 156v131h132v-131h-132zM688 311v132h132v-132h-132zM688 466v133h132v-133h-132zM688 621v132h132v-132h-132zM688 777v132h132v-132h-132z" />
<glyph unicode="&#xf6;" d="M66 156v131h132v-131h-132zM66 311v132h132v-132h-132zM66 466v133h132v-133h-132zM66 621v132h132v-132h-132zM66 777v132h132v-132h-132zM222 0v132h132v-132h-132zM222 933v132h132v-132h-132zM378 0v132h132v-132h-132zM378 933v132h132v-132h-132zM532 0v132h134 v-132h-134zM532 933v132h134v-132h-134zM688 156v131h132v-131h-132zM688 311v132h132v-132h-132zM688 466v133h132v-133h-132zM688 621v132h132v-132h-132zM688 777v132h132v-132h-132z" />
<glyph unicode="&#xf9;" d="M66 156v131h132v-131h-132zM66 311v132h132v-132h-132zM66 466v133h132v-133h-132zM66 621v132h132v-132h-132zM66 777v132h132v-132h-132zM66 933v132h132v-132h-132zM222 0v132h132v-132h-132zM378 0v132h132v-132h-132zM532 0v132h134v-132h-134zM688 156v131h132 v-131h-132zM688 311v132h132v-132h-132zM688 466v133h132v-133h-132zM688 621v132h132v-132h-132zM688 777v132h132v-132h-132zM688 933v132h132v-132h-132z" />
<glyph unicode="&#xfa;" d="M66 156v131h132v-131h-132zM66 311v132h132v-132h-132zM66 466v133h132v-133h-132zM66 621v132h132v-132h-132zM66 777v132h132v-132h-132zM66 933v132h132v-132h-132zM222 0v132h132v-132h-132zM378 0v132h132v-132h-132zM532 0v132h134v-132h-134zM688 156v131h132 v-131h-132zM688 311v132h132v-132h-132zM688 466v133h132v-133h-132zM688 621v132h132v-132h-132zM688 777v132h132v-132h-132zM688 933v132h132v-132h-132z" />
<glyph unicode="&#xfb;" d="M66 156v131h132v-131h-132zM66 311v132h132v-132h-132zM66 466v133h132v-133h-132zM66 621v132h132v-132h-132zM66 777v132h132v-132h-132zM66 933v132h132v-132h-132zM222 0v132h132v-132h-132zM378 0v132h132v-132h-132zM532 0v132h134v-132h-134zM688 156v131h132 v-131h-132zM688 311v132h132v-132h-132zM688 466v133h132v-133h-132zM688 621v132h132v-132h-132zM688 777v132h132v-132h-132zM688 933v132h132v-132h-132z" />
<glyph unicode="&#xfc;" d="M66 156v131h132v-131h-132zM66 311v132h132v-132h-132zM66 466v133h132v-133h-132zM66 621v132h132v-132h-132zM66 777v132h132v-132h-132zM66 933v132h132v-132h-132zM222 0v132h132v-132h-132zM378 0v132h132v-132h-132zM532 0v132h134v-132h-134zM688 156v131h132 v-131h-132zM688 311v132h132v-132h-132zM688 466v133h132v-133h-132zM688 621v132h132v-132h-132zM688 777v132h132v-132h-132zM688 933v132h132v-132h-132z" />
<glyph unicode="&#xfe;" horiz-adv-x="1331" />
<glyph unicode="&#xff;" horiz-adv-x="1331" />
<glyph unicode="&#x2000;" horiz-adv-x="682" />
<glyph unicode="&#x2001;" horiz-adv-x="1365" />
<glyph unicode="&#x2002;" horiz-adv-x="682" />
<glyph unicode="&#x2003;" horiz-adv-x="1365" />
<glyph unicode="&#x2004;" horiz-adv-x="455" />
<glyph unicode="&#x2005;" horiz-adv-x="341" />
<glyph unicode="&#x2006;" horiz-adv-x="227" />
<glyph unicode="&#x2007;" horiz-adv-x="227" />
<glyph unicode="&#x2008;" horiz-adv-x="170" />
<glyph unicode="&#x2009;" horiz-adv-x="273" />
<glyph unicode="&#x200a;" horiz-adv-x="75" />
<glyph unicode="&#x202f;" horiz-adv-x="273" />
<glyph unicode="&#x205f;" horiz-adv-x="341" />
<glyph unicode="&#x2122;" horiz-adv-x="694" d="M0 280q0 34 26 58.5t60 24.5q6 0 15 -2.5t13 -2.5t10 5h4l-10 -41h-4q-1 34 -28 34q-30 0 -48 -46q-7 -20 -7 -37q0 -33 30 -33q22 0 39 21h5q-21 -32 -53 -32q-52 0 -52 51zM100 447l1 3q13 0 17 6l4 14l24 82q3 10 3 11q0 9 -14 10l1 2h51q45 0 44 -29q0 -41 -53 -42 q-6 0 -17 2l-11 -36q-1 -7 -1 -10q0 -8 16 -10l-1 -3h-64zM121 252q0 20 15 44t34 24q11 0 14 -15l4 12l23 1l-21 -70q-1 -2 -1 -3q1 -3 3 -3q4 0 13 12l2 -1q-13 -24 -30 -24q-11 0 -11 10q0 1 3 14l1 6q-17 -30 -33 -30t-16 23zM127 662l1 4q16 0 21 20l24 82q3 7 3 11 q0 7 -15 9l1 3h54q41 0 41 -28q0 -25 -35 -36l12 -39q3 -6 6.5 -14t13.5 -8v-4h-41l-17 63h-7l-12 -39q-3 -9 -3 -13q0 -7 16 -7l-1 -4h-62zM145 255q0 -9 5 -9q9 0 19 21.5t10 32.5q0 15 -6 14q-8 0 -20 -28q-7 -20 -8 -31zM164 514q5 -1 9 -2q29 0 29 38q0 19 -18 18h-6z M190 731h6q32 0 32 35q0 19 -17 18h-5zM217 231l17 62q3 9 3 12q0 5 -9 5l1 4l32 6h5l-12 -42q27 41 46 42q11 0 11 -14q0 -4 -2 -13l-12 -40q-1 -4 -1 -7q0 -2 1 -2q4 1 9 8q1 2 3 3l4 -1q-15 -24 -31 -24q-12 0 -12 11q0 3 3 12l12 40q1 4 1 7q-1 2 -4 2q-12 0 -33 -43 l-8 -28h-24zM229 470q0 25 20 45t45 20q17 0 16 -13q0 -34 -55 -40q-1 -6 -1 -9q0 -17 16 -17q12 0 28 15l3 -2q-20 -24 -44 -24q-28 0 -28 25zM257 488q32 3 32 35q0 5 -6 5q-15 0 -26 -40zM266 683q0 20 16 44t35 24q10 0 13 -15l4 12l22 1l-21 -73q0 -3 3 -3q4 0 12 13 l4 -3q-13 -24 -32 -24q-10 0 -11 11q0 6 3 13l3 8q-19 -32 -34 -32q-17 0 -17 24zM289 546l11 33h29l-32 -33h-8zM292 687q0 -9 5 -10q10 0 19.5 21t9.5 33q0 13 -8 13q-9 0 -20 -26q-6 -17 -6 -31zM314 447l16 63q2 5 2 9q0 7 -10 7l2 2l28 7h6l-15 -53q24 53 38 53 q9 0 9 -12q0 -19 -10 -19q-4 0 -7 4t-4 4q-8 0 -25 -38q-2 -7 -6 -27h-24zM322 229l6 32h2q8 -28 23 -28q12 0 12 12q0 8 -15 24.5t-15 26.5q0 24 30 24q4 0 10.5 -1.5t10.5 -1.5q3 0 5 3h4l-5 -30h-3q-1 24 -20 24q-10 0 -10 -8q0 -6 6 -13q22 -23 22 -35q0 -29 -31 -29 q-4 0 -10.5 2t-10.5 2t-7 -4h-4zM366 672q0 4 3 14l11 38q2 9 2 12q0 6 -10 6l2 2l32 7h5l-18 -65q-2 -4 -2 -7q2 0 2 -2h1q12 0 34 41l9 29l24 1l-19 -62q-1 -8 -1 -10q0 -3 1 -3q4 0 12 13l2 -3q-11 -24 -28 -24q-13 0 -13 12q0 1 3 12l4 16q-27 -40 -42 -40q-13 0 -14 13 zM391 470q0 25 20.5 45t44.5 20q17 0 17 -13q0 -34 -55 -40q-1 -6 -1 -9q0 -17 15 -17q13 0 29 15l2 -2q-20 -24 -44 -24q-28 0 -28 25zM402 254q0 26 20 46t45 20q17 0 16 -14q0 -36 -55 -38q-1 -7 -1 -11q0 -17 16 -16q12 0 28 14l4 -2q-21 -24 -45 -24q-28 0 -28 25z M414 760l12 34h29l-32 -34h-9zM418 488q33 3 33 35q0 5 -5 5q-16 0 -28 -40zM430 272q32 6 32 35q0 6 -6 6q-14 0 -26 -41zM471 447l56 65h-20q-15 0 -19 -10h-5l8 30h60l-54 -63q9 -4 14.5 -19.5t7.5 -15.5q4 0 4 5v6q-1 3 -1 5q0 12 12 12q9 0 9 -11q0 -21 -25 -21 q-8 0 -20 9t-16 9q-2 0 -4 -1h-7zM471 671q0 2 3 12l25 87q1 7 1 10q0 5 -9 5l2 3l32 6h5l-32 -107q-3 -8 -3 -12q2 -3 3 -3q5 0 13 14l4 -2q-16 -25 -31 -25q-13 0 -13 12zM490 255q0 25 17.5 45t39.5 20q23 0 23 -16q0 -17 -14 -17q-10 0 -10 10q0 5 4.5 8.5t4.5 4.5 q0 5 -6 5q-19 0 -30 -28q-5 -13 -5 -25q0 -20 17 -20q14 0 27 12l2 -2q-19 -23 -42 -23q-28 0 -28 26zM575 255q0 25 18 45t42 20q27 0 27 -27q0 -24 -17.5 -44t-41.5 -20q-28 0 -28 26zM599 244q0 -9 9 -10q7 0 17 18q15 28 14 52q0 10 -8 10q-13 0 -24 -29q-8 -24 -8 -41z " />
<glyph unicode="&#x25fc;" horiz-adv-x="1064" d="M0 0v1065h1065v-1065h-1065z" />
</font>
</defs>
</svg>
